<svg width="119" height="119" viewBox="0 0 119 119" fill="none" xmlns="http://www.w3.org/2000/svg">
<circle cx="60.5" cy="58.5" r="38.5" fill="#BD902F"/>
<path d="M47.64 52.4C47.12 52.1333 46.5667 51.9067 45.98 51.72C45.3933 51.52 44.8333 51.42 44.3 51.42C43.58 51.42 43.0067 51.58 42.58 51.9C42.1667 52.22 41.96 52.66 41.96 53.22C41.96 53.62 42.1067 53.9733 42.4 54.28C42.6933 54.5733 43.0667 54.8333 43.52 55.06C43.9733 55.2733 44.4533 55.48 44.96 55.68C45.4 55.84 45.8333 56.0333 46.26 56.26C46.7 56.4733 47.0933 56.74 47.44 57.06C47.7867 57.38 48.06 57.78 48.26 58.26C48.4733 58.7267 48.58 59.3067 48.58 60C48.58 60.76 48.3867 61.46 48 62.1C47.6133 62.7267 47.06 63.2267 46.34 63.6C45.62 63.9733 44.74 64.16 43.7 64.16C43.1 64.16 42.5067 64.0933 41.92 63.96C41.3467 63.8267 40.8 63.6467 40.28 63.42C39.76 63.18 39.28 62.9133 38.84 62.62L39.88 60.8C40.2 61.04 40.5667 61.26 40.98 61.46C41.3933 61.66 41.82 61.82 42.26 61.94C42.7 62.0467 43.1133 62.1 43.5 62.1C43.9133 62.1 44.32 62.0333 44.72 61.9C45.1333 61.7667 45.4733 61.5467 45.74 61.24C46.02 60.9333 46.16 60.5267 46.16 60.02C46.16 59.6067 46.04 59.2533 45.8 58.96C45.56 58.6667 45.2467 58.4133 44.86 58.2C44.4867 57.9733 44.0733 57.7733 43.62 57.6C43.1667 57.4267 42.7 57.2333 42.22 57.02C41.7533 56.8067 41.32 56.5467 40.92 56.24C40.52 55.92 40.1933 55.5333 39.94 55.08C39.6867 54.6267 39.56 54.0667 39.56 53.4C39.56 52.6 39.7467 51.9067 40.12 51.32C40.4933 50.7333 41.0067 50.2667 41.66 49.92C42.3267 49.5733 43.0933 49.3867 43.96 49.36C44.9867 49.36 45.86 49.4867 46.58 49.74C47.3133 49.98 47.96 50.2733 48.52 50.62L47.64 52.4ZM51.9806 51.82H54.2406V55.54H56.4406V57.3H54.2406V64H51.9806V57.3H50.5406V55.54H51.9806V51.82ZM62.2016 64.22C61.4016 64.22 60.6749 64.0533 60.0216 63.72C59.3816 63.3867 58.8749 62.8933 58.5016 62.24C58.1282 61.5733 57.9416 60.7533 57.9416 59.78C57.9416 58.82 58.1349 58 58.5216 57.32C58.9216 56.6267 59.4416 56.0933 60.0816 55.72C60.7349 55.3467 61.4416 55.16 62.2016 55.16C63.0149 55.16 63.6682 55.32 64.1616 55.64C64.6682 55.96 65.0616 56.34 65.3416 56.78L65.2216 57.1L65.4416 55.54H67.5016V64H65.2616V61.94L65.4816 62.48C65.4282 62.56 65.3216 62.6933 65.1616 62.88C65.0016 63.0533 64.7816 63.2467 64.5016 63.46C64.2216 63.6733 63.8882 63.8533 63.5016 64C63.1282 64.1467 62.6949 64.22 62.2016 64.22ZM62.8216 62.38C63.2216 62.38 63.5816 62.3067 63.9016 62.16C64.2349 62.0133 64.5149 61.8067 64.7416 61.54C64.9816 61.2733 65.1549 60.9533 65.2616 60.58V58.74C65.1549 58.3933 64.9816 58.0933 64.7416 57.84C64.5016 57.5733 64.2082 57.3667 63.8616 57.22C63.5282 57.0733 63.1549 57 62.7416 57C62.2882 57 61.8682 57.1133 61.4816 57.34C61.0949 57.5667 60.7816 57.88 60.5416 58.28C60.3149 58.68 60.2016 59.14 60.2016 59.66C60.2016 60.1667 60.3216 60.6267 60.5616 61.04C60.8016 61.4533 61.1216 61.78 61.5216 62.02C61.9216 62.26 62.3549 62.38 62.8216 62.38ZM72.6147 55.54L72.8147 57.94L72.7347 57.6C72.9747 57.0933 73.3014 56.66 73.7147 56.3C74.1414 55.9267 74.5747 55.6467 75.0147 55.46C75.4547 55.26 75.8147 55.16 76.0947 55.16L75.9947 57.4C75.3547 57.3467 74.7947 57.4667 74.3147 57.76C73.848 58.04 73.4814 58.4133 73.2147 58.88C72.9614 59.3467 72.8347 59.84 72.8347 60.36V64H70.5947V55.54H72.6147ZM79.1877 51.82H81.4477V55.54H83.6477V57.3H81.4477V64H79.1877V57.3H77.7477V55.54H79.1877V51.82Z" fill="white"/>
<path d="M59.3257 0.162919C91.9104 0.252917 118.253 26.741 118.163 59.3257C118.073 91.9103 91.5845 118.252 58.9998 118.162C26.4151 118.072 0.0729582 91.5844 0.162957 58.9997C0.252955 26.4151 26.741 0.0729201 59.3257 0.162919ZM59.0324 106.339C85.0874 106.411 106.267 85.348 106.339 59.293C106.411 33.238 85.348 12.058 59.293 11.986C33.2381 11.914 12.058 32.9774 11.986 59.0324C11.9141 85.0874 32.9775 106.267 59.0324 106.339Z" fill="url(#paint0_angular_42_24)"/>
<defs>
<radialGradient id="paint0_angular_42_24" cx="0" cy="0" r="1" gradientUnits="userSpaceOnUse" gradientTransform="translate(59.1627 59.1627) rotate(0.15825) scale(59)">
<stop stop-color="#C49B43"/>
<stop offset="1" stop-color="#F0E8B3"/>
</radialGradient>
</defs>
</svg>
