<svg width="20" height="20" viewBox="0 0 20 20" fill="none" xmlns="http://www.w3.org/2000/svg">
<path d="M12.7187 4.42311C13.4794 6.09999 14.4125 8.15749 15.1125 8.97499C15.25 8.65749 15.235 8.12499 15.3912 6.82499C15.5325 5.65249 16.5 5.54061 16.9156 5.62374C17.8344 5.81561 18.1137 6.74624 18.0831 7.08936C18.0344 7.63624 18.0319 7.61749 17.9319 8.94061C17.785 10.875 18.5319 12.3356 18.6006 13.9919C18.6006 17.1131 15.865 18.6469 13.9506 18.6469C12.4187 18.6469 10.8856 17.6669 10.3112 17.1769L7.43873 14.5531C7.08748 14.28 6.2181 13.3775 5.83685 12.8581C4.79685 11.4437 6.3006 10.4694 7.1456 10.7144C7.07935 10.6631 6.6781 10.0119 6.48623 9.69311C5.9706 8.65749 6.48623 7.96811 6.86748 7.77811C7.73185 7.34811 8.36748 7.83186 8.56748 8.09561C8.4906 7.96561 8.2506 7.43936 7.86373 6.47374C7.47685 5.50874 8.09998 4.91249 8.45998 4.73499C9.24123 4.37311 9.98373 4.83249 10.1694 5.24311C10.2606 5.44374 10.7506 6.51811 10.9644 6.99124C10.8031 6.59874 10.5119 5.81811 10.4087 5.45749C10.2037 4.60749 10.6969 4.02499 11.01 3.87499C11.4444 3.66686 12.3512 3.61249 12.71 4.40249L12.7187 4.42311Z" fill="url(#paint0_radial_296_48)"/>
<path d="M12.7188 4.42311C13.4794 6.09999 14.4125 8.15749 15.1125 8.97499C15.25 8.65749 15.235 8.12499 15.3913 6.82499C15.5325 5.65249 16.5 5.54061 16.9156 5.62374C17.8344 5.81561 18.1138 6.74624 18.0831 7.08936C18.0344 7.63624 18.0319 7.61749 17.9319 8.94061C17.785 10.875 18.5319 12.3356 18.6006 13.9919C18.6006 17.1131 15.865 18.6469 13.9506 18.6469C12.4188 18.6469 10.8856 17.6669 10.3113 17.1769L7.43876 14.5531C7.08688 14.28 6.21813 13.3775 5.83626 12.8581C4.79688 11.4437 6.30063 10.4694 7.14563 10.7144C7.07938 10.6631 6.67813 10.0119 6.48626 9.69311C5.97063 8.65749 6.48626 7.96811 6.86751 7.77811C7.73188 7.34811 8.36751 7.83186 8.56751 8.09561C8.49063 7.96561 8.25063 7.43936 7.86376 6.47374C7.47688 5.50874 8.10001 4.91249 8.46001 4.73499C9.24126 4.37311 9.98376 4.83249 10.1694 5.24311C10.2606 5.44374 10.7506 6.51811 10.9644 6.99124C10.8031 6.59874 10.5119 5.81811 10.4088 5.45749C10.2038 4.60749 10.6969 4.02499 11.0094 3.87499C11.4444 3.66686 12.3513 3.61249 12.7094 4.40249L12.7188 4.42311Z" fill="url(#paint1_radial_296_48)"/>
<path d="M18.0831 7.08936C18.0343 7.63624 18.0318 7.61749 17.9318 8.94061C17.88 9.62436 18.2512 12.1412 18.2512 12.1412C17.3481 12.4362 15.3912 12.0456 15.1131 8.97499C15.25 8.65749 15.235 8.12499 15.3912 6.82499C15.5325 5.65249 16.5 5.54061 16.9156 5.62374C17.8343 5.81561 18.1137 6.74624 18.0831 7.08936Z" fill="url(#paint2_radial_296_48)"/>
<path d="M18.0831 7.08936C18.0343 7.63624 18.0318 7.61749 17.9318 8.94061C17.88 9.62436 18.2512 12.1412 18.2512 12.1412C17.3481 12.4362 15.3912 12.0456 15.1131 8.97499C15.25 8.65749 15.235 8.12499 15.3912 6.82499C15.5325 5.65249 16.5 5.54061 16.9156 5.62374C17.8343 5.81561 18.1137 6.74624 18.0831 7.08936Z" fill="url(#paint3_radial_296_48)"/>
<path d="M18.0831 7.08936C18.0343 7.63624 18.0318 7.61749 17.9318 8.94061C17.88 9.62436 18.2512 12.1412 18.2512 12.1412C17.3481 12.4362 15.3912 12.0456 15.1131 8.97499C15.25 8.65749 15.235 8.12499 15.3912 6.82499C15.5325 5.65249 16.5 5.54061 16.9156 5.62374C17.8343 5.81561 18.1137 6.74624 18.0831 7.08936Z" fill="url(#paint4_radial_296_48)"/>
<path d="M12.7188 4.42311C13.4794 6.09999 14.4125 8.15749 15.1125 8.97499C15.0031 9.90999 14.1675 10.3575 13.4475 10.19C12.5394 9.92624 12.1944 9.28186 12.1944 9.28186C12.1944 9.28186 11.9569 8.91436 11.7256 8.50999C11.4581 8.04249 11.5069 8.05311 11.0588 7.20686C10.9706 7.04061 10.5394 5.91311 10.4088 5.45749C10.2038 4.60749 10.6969 4.02499 11.01 3.87499C11.4444 3.66686 12.3513 3.61249 12.71 4.40249L12.7188 4.42311Z" fill="url(#paint5_radial_296_48)"/>
<path d="M12.7188 4.42311C13.4794 6.09999 14.4125 8.15749 15.1125 8.97499C15.0031 9.90999 14.1675 10.3575 13.4475 10.19C12.5394 9.92624 12.1944 9.28186 12.1944 9.28186C12.1944 9.28186 11.9569 8.91436 11.7256 8.50999C11.4581 8.04249 11.5069 8.05311 11.0588 7.20686C10.9706 7.04061 10.5394 5.91311 10.4088 5.45749C10.2038 4.60749 10.6969 4.02499 11.01 3.87499C11.4444 3.66686 12.3513 3.61249 12.71 4.40249L12.7188 4.42311Z" fill="url(#paint6_linear_296_48)"/>
<path d="M12.7188 4.42311C13.4794 6.09999 14.4125 8.15749 15.1125 8.97499C15.0031 9.90999 14.1675 10.3575 13.4475 10.19C12.5394 9.92624 12.1944 9.28186 12.1944 9.28186C12.1944 9.28186 11.9569 8.91436 11.7256 8.50999C11.4581 8.04249 11.5069 8.05311 11.0588 7.20686C10.9706 7.04061 10.5394 5.91311 10.4088 5.45749C10.2038 4.60749 10.6969 4.02499 11.01 3.87499C11.4444 3.66686 12.3513 3.61249 12.71 4.40249L12.7188 4.42311Z" fill="url(#paint7_radial_296_48)"/>
<path d="M12.7188 4.42311C13.4794 6.09999 14.4125 8.15749 15.1125 8.97499C15.0031 9.90999 14.1675 10.3575 13.4475 10.19C12.5394 9.92624 12.1944 9.28186 12.1944 9.28186C12.1944 9.28186 11.9569 8.91436 11.7256 8.50999C11.4581 8.04249 11.5069 8.05311 11.0588 7.20686C10.9706 7.04061 10.5394 5.91311 10.4088 5.45749C10.2038 4.60749 10.6969 4.02499 11.01 3.87499C11.4444 3.66686 12.3513 3.61249 12.71 4.40249L12.7188 4.42311Z" fill="url(#paint8_radial_296_48)"/>
<path d="M12.7188 4.42311C13.4794 6.09999 14.4125 8.15749 15.1125 8.97499C15.0031 9.90999 14.1675 10.3575 13.4475 10.19C12.5394 9.92624 12.1944 9.28186 12.1944 9.28186C12.1944 9.28186 11.9569 8.91436 11.7256 8.50999C11.4581 8.04249 11.5069 8.05311 11.0588 7.20686C10.9706 7.04061 10.5394 5.91311 10.4088 5.45749C10.2038 4.60749 10.6969 4.02499 11.01 3.87499C11.4444 3.66686 12.3513 3.61249 12.71 4.40249L12.7188 4.42311Z" fill="url(#paint9_linear_296_48)"/>
<path d="M10.1693 5.24312C10.2918 5.51312 11.1368 7.36312 11.0587 7.20687C11.2856 7.71937 11.99 8.96937 12.1943 9.31125C12.6468 10.065 12.1362 10.6919 11.8069 10.8831C10.8587 11.4331 10.3143 10.7319 10.3143 10.7319C9.81435 9.99937 9.39685 9.38937 8.57122 8.09062C8.37247 7.71562 8.00997 6.87937 7.86372 6.47375C7.5031 5.4725 8.09997 4.9125 8.45997 4.735C9.24122 4.37312 9.98372 4.8325 10.1693 5.24312Z" fill="url(#paint10_radial_296_48)"/>
<path d="M10.1693 5.24312C10.2918 5.51312 11.1368 7.36312 11.0587 7.20687C11.2856 7.71937 11.99 8.96937 12.1943 9.31125C12.6468 10.065 12.1362 10.6919 11.8069 10.8831C10.8587 11.4331 10.3143 10.7319 10.3143 10.7319C9.81435 9.99937 9.39685 9.38937 8.57122 8.09062C8.37247 7.71562 8.00997 6.87937 7.86372 6.47375C7.5031 5.4725 8.09997 4.9125 8.45997 4.735C9.24122 4.37312 9.98372 4.8325 10.1693 5.24312Z" fill="url(#paint11_linear_296_48)"/>
<path d="M10.1693 5.24312C10.2918 5.51312 11.1368 7.36312 11.0587 7.20687C11.2856 7.71937 11.99 8.96937 12.1943 9.31125C12.6468 10.065 12.1362 10.6919 11.8069 10.8831C10.8587 11.4331 10.3143 10.7319 10.3143 10.7319C9.81435 9.99937 9.39685 9.38937 8.57122 8.09062C8.37247 7.71562 8.00997 6.87937 7.86372 6.47375C7.5031 5.4725 8.09997 4.9125 8.45997 4.735C9.24122 4.37312 9.98372 4.8325 10.1693 5.24312Z" fill="url(#paint12_radial_296_48)"/>
<path d="M10.1693 5.24312C10.2918 5.51312 11.1368 7.36312 11.0587 7.20687C11.2856 7.71937 11.99 8.96937 12.1943 9.31125C12.6468 10.065 12.1362 10.6919 11.8069 10.8831C10.8587 11.4331 10.3143 10.7319 10.3143 10.7319C9.81435 9.99937 9.39685 9.38937 8.57122 8.09062C8.37247 7.71562 8.00997 6.87937 7.86372 6.47375C7.5031 5.4725 8.09997 4.9125 8.45997 4.735C9.24122 4.37312 9.98372 4.8325 10.1693 5.24312Z" fill="url(#paint13_radial_296_48)"/>
<path d="M10.1693 5.24312C10.2918 5.51312 11.1368 7.36312 11.0587 7.20687C11.2856 7.71937 11.99 8.96937 12.1943 9.31125C12.6468 10.065 12.1362 10.6919 11.8069 10.8831C10.8587 11.4331 10.3143 10.7319 10.3143 10.7319C9.81435 9.99937 9.39685 9.38937 8.57122 8.09062C8.37247 7.71562 8.00997 6.87937 7.86372 6.47375C7.5031 5.4725 8.09997 4.9125 8.45997 4.735C9.24122 4.37312 9.98372 4.8325 10.1693 5.24312Z" fill="url(#paint14_radial_296_48)"/>
<path d="M10.1693 5.24312C10.2918 5.51312 11.1368 7.36312 11.0587 7.20687C11.2856 7.71937 11.99 8.96937 12.1943 9.31125C12.6468 10.065 12.1362 10.6919 11.8069 10.8831C10.8587 11.4331 10.3143 10.7319 10.3143 10.7319C9.81435 9.99937 9.39685 9.38937 8.57122 8.09062C8.37247 7.71562 8.00997 6.87937 7.86372 6.47375C7.5031 5.4725 8.09997 4.9125 8.45997 4.735C9.24122 4.37312 9.98372 4.8325 10.1693 5.24312Z" fill="url(#paint15_linear_296_48)"/>
<path d="M6.86752 7.77811C7.73189 7.34811 8.36752 7.83186 8.56752 8.09561C9.19189 9.03749 9.93627 10.1081 10.28 10.6781C11.1988 12.1969 9.31877 12.8556 9.31877 12.8556C7.59002 10.9075 7.27002 10.8094 7.14564 10.7137C7.07939 10.6631 6.67814 10.0119 6.48627 9.69311C5.97064 8.65749 6.48627 7.96749 6.86752 7.77811Z" fill="url(#paint16_radial_296_48)"/>
<path d="M6.86752 7.77811C7.73189 7.34811 8.36752 7.83186 8.56752 8.09561C9.19189 9.03749 9.93627 10.1081 10.28 10.6781C11.1988 12.1969 9.31877 12.8556 9.31877 12.8556C7.59002 10.9075 7.27002 10.8094 7.14564 10.7137C7.07939 10.6631 6.67814 10.0119 6.48627 9.69311C5.97064 8.65749 6.48627 7.96749 6.86752 7.77811Z" fill="url(#paint17_linear_296_48)"/>
<path d="M6.86752 7.77811C7.73189 7.34811 8.36752 7.83186 8.56752 8.09561C9.19189 9.03749 9.93627 10.1081 10.28 10.6781C11.1988 12.1969 9.31877 12.8556 9.31877 12.8556C7.59002 10.9075 7.27002 10.8094 7.14564 10.7137C7.07939 10.6631 6.67814 10.0119 6.48627 9.69311C5.97064 8.65749 6.48627 7.96749 6.86752 7.77811Z" fill="url(#paint18_radial_296_48)"/>
<path d="M6.86752 7.77811C7.73189 7.34811 8.36752 7.83186 8.56752 8.09561C9.19189 9.03749 9.93627 10.1081 10.28 10.6781C11.1988 12.1969 9.31877 12.8556 9.31877 12.8556C7.59002 10.9075 7.27002 10.8094 7.14564 10.7137C7.07939 10.6631 6.67814 10.0119 6.48627 9.69311C5.97064 8.65749 6.48627 7.96749 6.86752 7.77811Z" fill="url(#paint19_radial_296_48)"/>
<path d="M6.86752 7.77811C7.73189 7.34811 8.36752 7.83186 8.56752 8.09561C9.19189 9.03749 9.93627 10.1081 10.28 10.6781C11.1988 12.1969 9.31877 12.8556 9.31877 12.8556C7.59002 10.9075 7.27002 10.8094 7.14564 10.7137C7.07939 10.6631 6.67814 10.0119 6.48627 9.69311C5.97064 8.65749 6.48627 7.96749 6.86752 7.77811Z" fill="url(#paint20_radial_296_48)"/>
<path d="M6.86752 7.77811C7.73189 7.34811 8.36752 7.83186 8.56752 8.09561C9.19189 9.03749 9.93627 10.1081 10.28 10.6781C11.1988 12.1969 9.31877 12.8556 9.31877 12.8556C7.59002 10.9075 7.27002 10.8094 7.14564 10.7137C7.07939 10.6631 6.67814 10.0119 6.48627 9.69311C5.97064 8.65749 6.48627 7.96749 6.86752 7.77811Z" fill="url(#paint21_radial_296_48)"/>
<path d="M5.83626 12.8581C4.79688 11.4438 6.30063 10.4694 7.14563 10.7144C7.54563 10.9613 8.16438 11.5806 8.42751 11.86C10.1038 13.4944 9.82438 13.9988 9.35563 14.5538C8.90126 14.93 8.31063 15.2319 7.43876 14.5538C7.08688 14.28 6.21813 13.3775 5.83626 12.8581Z" fill="url(#paint22_radial_296_48)"/>
<path d="M5.83626 12.8581C4.79688 11.4438 6.30063 10.4694 7.14563 10.7144C7.54563 10.9613 8.16438 11.5806 8.42751 11.86C10.1038 13.4944 9.82438 13.9988 9.35563 14.5538C8.90126 14.93 8.31063 15.2319 7.43876 14.5538C7.08688 14.28 6.21813 13.3775 5.83626 12.8581Z" fill="url(#paint23_radial_296_48)"/>
<path d="M5.83626 12.8581C4.79688 11.4438 6.30063 10.4694 7.14563 10.7144C7.54563 10.9613 8.16438 11.5806 8.42751 11.86C10.1038 13.4944 9.82438 13.9988 9.35563 14.5538C8.90126 14.93 8.31063 15.2319 7.43876 14.5538C7.08688 14.28 6.21813 13.3775 5.83626 12.8581Z" fill="url(#paint24_radial_296_48)"/>
<path d="M5.83626 12.8581C4.79688 11.4438 6.30063 10.4694 7.14563 10.7144C7.54563 10.9613 8.16438 11.5806 8.42751 11.86C10.1038 13.4944 9.82438 13.9988 9.35563 14.5538C8.90126 14.93 8.31063 15.2319 7.43876 14.5538C7.08688 14.28 6.21813 13.3775 5.83626 12.8581Z" fill="url(#paint25_radial_296_48)"/>
<path d="M5.83626 12.8581C4.79688 11.4438 6.30063 10.4694 7.14563 10.7144C7.54563 10.9613 8.16438 11.5806 8.42751 11.86C10.1038 13.4944 9.82438 13.9988 9.35563 14.5538C8.90126 14.93 8.31063 15.2319 7.43876 14.5538C7.08688 14.28 6.21813 13.3775 5.83626 12.8581Z" fill="url(#paint26_linear_296_48)"/>
<path d="M12.7188 4.42311C13.4794 6.09999 14.4125 8.15749 15.1125 8.97499C15.25 8.65749 15.235 8.12499 15.3913 6.82499C15.5325 5.65249 16.5 5.54061 16.9156 5.62374C17.8344 5.81561 18.1138 6.74624 18.0831 7.08936C18.0344 7.63624 18.0319 7.61749 17.9319 8.94061C17.785 10.875 18.5319 12.3356 18.6006 13.9919C18.6006 17.1131 15.865 18.6469 13.9506 18.6469C12.4188 18.6469 10.8856 17.6669 10.3113 17.1769L7.43876 14.5531C7.08688 14.28 6.21813 13.3775 5.83626 12.8581C4.79688 11.4437 6.30063 10.4694 7.14563 10.7144C7.07938 10.6631 6.67813 10.0119 6.48626 9.69311C5.97063 8.65749 6.48626 7.96811 6.86751 7.77811C7.73188 7.34811 8.36751 7.83186 8.56751 8.09561C8.49063 7.96561 8.25063 7.43936 7.86376 6.47374C7.47688 5.50874 8.10001 4.91249 8.46001 4.73499C9.24126 4.37311 9.98376 4.83249 10.1694 5.24311C10.2606 5.44374 10.7506 6.51811 10.9644 6.99124C10.8031 6.59874 10.5119 5.81811 10.4088 5.45749C10.2038 4.60749 10.6969 4.02499 11.0094 3.87499C11.4444 3.66686 12.3513 3.61249 12.7094 4.40249L12.7188 4.42311Z" fill="url(#paint27_radial_296_48)"/>
<path d="M12.7188 4.42311C13.4794 6.09999 14.4125 8.15749 15.1125 8.97499C15.25 8.65749 15.235 8.12499 15.3913 6.82499C15.5325 5.65249 16.5 5.54061 16.9156 5.62374C17.8344 5.81561 18.1138 6.74624 18.0831 7.08936C18.0344 7.63624 18.0319 7.61749 17.9319 8.94061C17.785 10.875 18.5319 12.3356 18.6006 13.9919C18.6006 17.1131 15.865 18.6469 13.9506 18.6469C12.4188 18.6469 10.8856 17.6669 10.3113 17.1769L7.43876 14.5531C7.08688 14.28 6.21813 13.3775 5.83626 12.8581C4.79688 11.4437 6.30063 10.4694 7.14563 10.7144C7.07938 10.6631 6.67813 10.0119 6.48626 9.69311C5.97063 8.65749 6.48626 7.96811 6.86751 7.77811C7.73188 7.34811 8.36751 7.83186 8.56751 8.09561C8.49063 7.96561 8.25063 7.43936 7.86376 6.47374C7.47688 5.50874 8.10001 4.91249 8.46001 4.73499C9.24126 4.37311 9.98376 4.83249 10.1694 5.24311C10.2606 5.44374 10.7506 6.51811 10.9644 6.99124C10.8031 6.59874 10.5119 5.81811 10.4088 5.45749C10.2038 4.60749 10.6969 4.02499 11.0094 3.87499C11.4444 3.66686 12.3513 3.61249 12.7094 4.40249L12.7188 4.42311Z" fill="url(#paint28_radial_296_48)"/>
<path d="M12.7188 4.42311C13.4794 6.09999 14.4125 8.15749 15.1125 8.97499C15.25 8.65749 15.235 8.12499 15.3913 6.82499C15.5325 5.65249 16.5 5.54061 16.9156 5.62374C17.8344 5.81561 18.1138 6.74624 18.0831 7.08936C18.0344 7.63624 18.0319 7.61749 17.9319 8.94061C17.785 10.875 18.5319 12.3356 18.6006 13.9919C18.6006 17.1131 15.865 18.6469 13.9506 18.6469C12.4188 18.6469 10.8856 17.6669 10.3113 17.1769L7.43876 14.5531C7.08688 14.28 6.21813 13.3775 5.83626 12.8581C4.79688 11.4437 6.30063 10.4694 7.14563 10.7144C7.07938 10.6631 6.67813 10.0119 6.48626 9.69311C5.97063 8.65749 6.48626 7.96811 6.86751 7.77811C7.73188 7.34811 8.36751 7.83186 8.56751 8.09561C8.49063 7.96561 8.25063 7.43936 7.86376 6.47374C7.47688 5.50874 8.10001 4.91249 8.46001 4.73499C9.24126 4.37311 9.98376 4.83249 10.1694 5.24311C10.2606 5.44374 10.7506 6.51811 10.9644 6.99124C10.8031 6.59874 10.5119 5.81811 10.4088 5.45749C10.2038 4.60749 10.6969 4.02499 11.0094 3.87499C11.4444 3.66686 12.3513 3.61249 12.7094 4.40249L12.7188 4.42311Z" fill="url(#paint29_radial_296_48)"/>
<path d="M13.7787 6.66751C14.2481 7.62626 14.7169 8.48564 15.1131 8.95626C15.1537 9.37501 15.19 9.61376 15.29 9.97501C14.4994 9.18376 13.7337 7.45439 13.7787 6.66751Z" fill="url(#paint30_radial_296_48)"/>
<path fill-rule="evenodd" clip-rule="evenodd" d="M2.57876 10.5625C2.66816 10.5627 2.75384 10.5983 2.817 10.6616C2.88016 10.7248 2.91563 10.8106 2.91563 10.9C2.91563 11.4625 3.14313 12.2156 3.63376 12.8238C4.11501 13.4219 4.84626 13.8744 5.87126 13.8744C5.9606 13.8744 6.04629 13.9099 6.10946 13.973C6.17264 14.0362 6.20813 14.1219 6.20813 14.2113C6.20813 14.3006 6.17264 14.3863 6.10946 14.4495C6.04629 14.5126 5.9606 14.5481 5.87126 14.5481C4.62001 14.5481 3.70438 13.9856 3.10876 13.2469C2.52251 12.5194 2.24188 11.6162 2.24188 10.8994C2.24205 10.8101 2.27759 10.7245 2.34073 10.6614C2.40387 10.5982 2.48946 10.5627 2.57876 10.5625Z" fill="url(#paint31_radial_296_48)"/>
<path fill-rule="evenodd" clip-rule="evenodd" d="M2.57876 10.5625C2.66816 10.5627 2.75384 10.5983 2.817 10.6616C2.88016 10.7248 2.91563 10.8106 2.91563 10.9C2.91563 11.4625 3.14313 12.2156 3.63376 12.8238C4.11501 13.4219 4.84626 13.8744 5.87126 13.8744C5.9606 13.8744 6.04629 13.9099 6.10946 13.973C6.17264 14.0362 6.20813 14.1219 6.20813 14.2113C6.20813 14.3006 6.17264 14.3863 6.10946 14.4495C6.04629 14.5126 5.9606 14.5481 5.87126 14.5481C4.62001 14.5481 3.70438 13.9856 3.10876 13.2469C2.52251 12.5194 2.24188 11.6162 2.24188 10.8994C2.24205 10.8101 2.27759 10.7245 2.34073 10.6614C2.40387 10.5982 2.48946 10.5627 2.57876 10.5625Z" fill="url(#paint32_radial_296_48)"/>
<path fill-rule="evenodd" clip-rule="evenodd" d="M2.57876 10.5625C2.66816 10.5627 2.75384 10.5983 2.817 10.6616C2.88016 10.7248 2.91563 10.8106 2.91563 10.9C2.91563 11.4625 3.14313 12.2156 3.63376 12.8238C4.11501 13.4219 4.84626 13.8744 5.87126 13.8744C5.9606 13.8744 6.04629 13.9099 6.10946 13.973C6.17264 14.0362 6.20813 14.1219 6.20813 14.2113C6.20813 14.3006 6.17264 14.3863 6.10946 14.4495C6.04629 14.5126 5.9606 14.5481 5.87126 14.5481C4.62001 14.5481 3.70438 13.9856 3.10876 13.2469C2.52251 12.5194 2.24188 11.6162 2.24188 10.8994C2.24205 10.8101 2.27759 10.7245 2.34073 10.6614C2.40387 10.5982 2.48946 10.5627 2.57876 10.5625Z" fill="url(#paint33_radial_296_48)"/>
<path fill-rule="evenodd" clip-rule="evenodd" d="M1.52999 11.7644C1.6195 11.7644 1.70535 11.7999 1.76864 11.8632C1.83193 11.9265 1.86749 12.0124 1.86749 12.1019C1.86749 13.2956 2.76124 14.8906 4.63999 14.8906C4.72934 14.8906 4.81502 14.9261 4.8782 14.9893C4.94137 15.0525 4.97687 15.1382 4.97687 15.2275C4.97687 15.3168 4.94137 15.4025 4.8782 15.4657C4.81502 15.5289 4.72934 15.5644 4.63999 15.5644C2.27749 15.5644 1.19312 13.5456 1.19312 12.1019C1.19312 12.0124 1.22867 11.9265 1.29197 11.8632C1.35526 11.7999 1.44048 11.7644 1.52999 11.7644Z" fill="url(#paint34_radial_296_48)"/>
<path fill-rule="evenodd" clip-rule="evenodd" d="M1.52999 11.7644C1.6195 11.7644 1.70535 11.7999 1.76864 11.8632C1.83193 11.9265 1.86749 12.0124 1.86749 12.1019C1.86749 13.2956 2.76124 14.8906 4.63999 14.8906C4.72934 14.8906 4.81502 14.9261 4.8782 14.9893C4.94137 15.0525 4.97687 15.1382 4.97687 15.2275C4.97687 15.3168 4.94137 15.4025 4.8782 15.4657C4.81502 15.5289 4.72934 15.5644 4.63999 15.5644C2.27749 15.5644 1.19312 13.5456 1.19312 12.1019C1.19312 12.0124 1.22867 11.9265 1.29197 11.8632C1.35526 11.7999 1.44048 11.7644 1.52999 11.7644Z" fill="url(#paint35_radial_296_48)"/>
<path fill-rule="evenodd" clip-rule="evenodd" d="M14.1475 6.15749C14.1033 6.15773 14.0594 6.14926 14.0184 6.13256C13.9775 6.11586 13.9402 6.09125 13.9087 6.06015C13.8773 6.02904 13.8523 5.99204 13.8351 5.95126C13.8179 5.91048 13.809 5.86673 13.8087 5.82249C13.805 5.25999 13.5725 4.50811 13.0781 3.90311C12.5925 3.30811 11.8594 2.86061 10.8337 2.86686C10.7479 2.86222 10.667 2.82499 10.6077 2.76276C10.5484 2.70054 10.515 2.61802 10.5145 2.53205C10.5139 2.44607 10.5462 2.36312 10.6047 2.30014C10.6632 2.23715 10.7436 2.19887 10.8294 2.19311C12.0806 2.18499 13 2.74249 13.6 3.47686C14.1912 4.20061 14.4775 5.10186 14.4825 5.81811C14.4828 5.8624 14.4744 5.90632 14.4577 5.94736C14.4411 5.9884 14.4165 6.02575 14.3854 6.05727C14.3543 6.08879 14.3172 6.11387 14.2764 6.13107C14.2356 6.14826 14.1918 6.15724 14.1475 6.15749Z" fill="url(#paint36_radial_296_48)"/>
<path fill-rule="evenodd" clip-rule="evenodd" d="M14.1475 6.15749C14.1033 6.15773 14.0594 6.14926 14.0184 6.13256C13.9775 6.11586 13.9402 6.09125 13.9087 6.06015C13.8773 6.02904 13.8523 5.99204 13.8351 5.95126C13.8179 5.91048 13.809 5.86673 13.8087 5.82249C13.805 5.25999 13.5725 4.50811 13.0781 3.90311C12.5925 3.30811 11.8594 2.86061 10.8337 2.86686C10.7479 2.86222 10.667 2.82499 10.6077 2.76276C10.5484 2.70054 10.515 2.61802 10.5145 2.53205C10.5139 2.44607 10.5462 2.36312 10.6047 2.30014C10.6632 2.23715 10.7436 2.19887 10.8294 2.19311C12.0806 2.18499 13 2.74249 13.6 3.47686C14.1912 4.20061 14.4775 5.10186 14.4825 5.81811C14.4828 5.8624 14.4744 5.90632 14.4577 5.94736C14.4411 5.9884 14.4165 6.02575 14.3854 6.05727C14.3543 6.08879 14.3172 6.11387 14.2764 6.13107C14.2356 6.14826 14.1918 6.15724 14.1475 6.15749Z" fill="url(#paint37_radial_296_48)"/>
<path fill-rule="evenodd" clip-rule="evenodd" d="M15.1875 4.94937C15.1433 4.94962 15.0994 4.94115 15.0585 4.92445C15.0175 4.90775 14.9802 4.88314 14.9488 4.85203C14.9173 4.82092 14.8923 4.78392 14.8751 4.74315C14.858 4.70237 14.849 4.65861 14.8488 4.61437C14.8406 3.42062 13.9363 1.83062 12.0575 1.84312C11.9682 1.8437 11.8823 1.80877 11.8187 1.746C11.7551 1.68323 11.719 1.59778 11.7185 1.50843C11.7179 1.41909 11.7528 1.33317 11.8156 1.26959C11.8783 1.206 11.9638 1.16995 12.0531 1.16937C14.4156 1.15375 15.5125 3.16625 15.5219 4.61C15.5222 4.65424 15.5138 4.69811 15.4972 4.7391C15.4806 4.7801 15.456 4.81742 15.425 4.84894C15.3939 4.88045 15.357 4.90554 15.3162 4.92277C15.2755 4.94001 15.2318 4.94904 15.1875 4.94937Z" fill="url(#paint38_radial_296_48)"/>
<path fill-rule="evenodd" clip-rule="evenodd" d="M15.1875 4.94937C15.1433 4.94962 15.0994 4.94115 15.0585 4.92445C15.0175 4.90775 14.9802 4.88314 14.9488 4.85203C14.9173 4.82092 14.8923 4.78392 14.8751 4.74315C14.858 4.70237 14.849 4.65861 14.8488 4.61437C14.8406 3.42062 13.9363 1.83062 12.0575 1.84312C11.9682 1.8437 11.8823 1.80877 11.8187 1.746C11.7551 1.68323 11.719 1.59778 11.7185 1.50843C11.7179 1.41909 11.7528 1.33317 11.8156 1.26959C11.8783 1.206 11.9638 1.16995 12.0531 1.16937C14.4156 1.15375 15.5125 3.16625 15.5219 4.61C15.5222 4.65424 15.5138 4.69811 15.4972 4.7391C15.4806 4.7801 15.456 4.81742 15.425 4.84894C15.3939 4.88045 15.357 4.90554 15.3162 4.92277C15.2755 4.94001 15.2318 4.94904 15.1875 4.94937Z" fill="url(#paint39_radial_296_48)"/>
<g filter="url(#filter0_f_296_48)">
<path d="M14.0818 9.01813C12.8712 9.50625 10.1318 11.11 9.32684 14.6831" stroke="#FFC339" stroke-width="2" stroke-linecap="round"/>
</g>
<defs>
<filter id="filter0_f_296_48" x="6.3266" y="6.01785" width="10.7555" height="11.6655" filterUnits="userSpaceOnUse" color-interpolation-filters="sRGB">
<feFlood flood-opacity="0" result="BackgroundImageFix"/>
<feBlend mode="normal" in="SourceGraphic" in2="BackgroundImageFix" result="shape"/>
<feGaussianBlur stdDeviation="1" result="effect1_foregroundBlur_296_48"/>
</filter>
<radialGradient id="paint0_radial_296_48" cx="0" cy="0" r="1" gradientUnits="userSpaceOnUse" gradientTransform="translate(12.0419 8.64686) rotate(60.1006) scale(13.1575 8.59563)">
<stop offset="0.003" stop-color="#FFC133"/>
<stop offset="0.698" stop-color="#FFC53F"/>
<stop offset="0.797" stop-color="#FFAD3E"/>
<stop offset="0.945" stop-color="#EC7D58"/>
</radialGradient>
<radialGradient id="paint1_radial_296_48" cx="0" cy="0" r="1" gradientUnits="userSpaceOnUse" gradientTransform="translate(18.6006 11.5375) rotate(-93.012) scale(7.80632 2.99057)">
<stop offset="0.003" stop-color="#FFE849"/>
<stop offset="1" stop-color="#FFE647" stop-opacity="0"/>
</radialGradient>
<radialGradient id="paint2_radial_296_48" cx="0" cy="0" r="1" gradientUnits="userSpaceOnUse" gradientTransform="translate(17.6632 5.95132) rotate(99.682) scale(4.18064 1.60159)">
<stop offset="0.003" stop-color="#FFE849"/>
<stop offset="1" stop-color="#FFE647" stop-opacity="0"/>
</radialGradient>
<radialGradient id="paint3_radial_296_48" cx="0" cy="0" r="1" gradientUnits="userSpaceOnUse" gradientTransform="translate(15.1125 8.46874) scale(1.69092 6.85731)">
<stop stop-color="#EE9F2C"/>
<stop offset="1" stop-color="#EE9F2C" stop-opacity="0"/>
</radialGradient>
<radialGradient id="paint4_radial_296_48" cx="0" cy="0" r="1" gradientUnits="userSpaceOnUse" gradientTransform="translate(15.855 11.1275) rotate(-94.0856) scale(2.84607 1.97682)">
<stop stop-color="#FFC93D"/>
<stop offset="1" stop-color="#FFC33A" stop-opacity="0"/>
</radialGradient>
<radialGradient id="paint5_radial_296_48" cx="0" cy="0" r="1" gradientUnits="userSpaceOnUse" gradientTransform="translate(14.265 6.80686) rotate(151.024) scale(2.99168 6.00969)">
<stop offset="0.563" stop-color="#F09D2E" stop-opacity="0"/>
<stop offset="1" stop-color="#F09D2E"/>
</radialGradient>
<linearGradient id="paint6_linear_296_48" x1="12.7369" y1="9.87186" x2="12.7369" y2="8.25624" gradientUnits="userSpaceOnUse">
<stop stop-color="#FFC337"/>
<stop offset="1" stop-color="#FFC337" stop-opacity="0"/>
</linearGradient>
<radialGradient id="paint7_radial_296_48" cx="0" cy="0" r="1" gradientUnits="userSpaceOnUse" gradientTransform="translate(13.64 4.42811) rotate(-13.4957) scale(2.00859 4.44173)">
<stop stop-color="#FFEC4C"/>
<stop offset="1" stop-color="#FFEC4C" stop-opacity="0"/>
</radialGradient>
<radialGradient id="paint8_radial_296_48" cx="0" cy="0" r="1" gradientUnits="userSpaceOnUse" gradientTransform="translate(10.3606 3.74186) rotate(33.3063) scale(1.9609 1.5203)">
<stop stop-color="#D99F2B"/>
<stop offset="1" stop-color="#D99F2B" stop-opacity="0"/>
</radialGradient>
<linearGradient id="paint9_linear_296_48" x1="10.6713" y1="7.68999" x2="11.6475" y2="7.22124" gradientUnits="userSpaceOnUse">
<stop stop-color="#A85300"/>
<stop offset="0.825" stop-color="#A85300" stop-opacity="0"/>
</linearGradient>
<radialGradient id="paint10_radial_296_48" cx="0" cy="0" r="1" gradientUnits="userSpaceOnUse" gradientTransform="translate(11.4456 7.73125) rotate(149.148) scale(2.88384 6.01802)">
<stop offset="0.563" stop-color="#F09D2E" stop-opacity="0"/>
<stop offset="1" stop-color="#F09D2E"/>
</radialGradient>
<linearGradient id="paint11_linear_296_48" x1="9.99997" y1="10.8594" x2="9.99997" y2="9.21062" gradientUnits="userSpaceOnUse">
<stop stop-color="#FFC337"/>
<stop offset="1" stop-color="#FFC337" stop-opacity="0"/>
</linearGradient>
<radialGradient id="paint12_radial_296_48" cx="0" cy="0" r="1" gradientUnits="userSpaceOnUse" gradientTransform="translate(11.1131 5.89312) rotate(-33.8929) scale(1.91384 5.82669)">
<stop stop-color="#FFEC4C"/>
<stop offset="1" stop-color="#FFEC4C" stop-opacity="0"/>
</radialGradient>
<radialGradient id="paint13_radial_296_48" cx="0" cy="0" r="1" gradientUnits="userSpaceOnUse" gradientTransform="translate(9.6556 8.25625) rotate(-24.9048) scale(2.41177 11.0124)">
<stop offset="0.598" stop-color="#F09D2E" stop-opacity="0"/>
<stop offset="1" stop-color="#F09D2E"/>
</radialGradient>
<radialGradient id="paint14_radial_296_48" cx="0" cy="0" r="1" gradientUnits="userSpaceOnUse" gradientTransform="translate(7.4681 4.60375) rotate(32.6006) scale(1.99382 1.5891)">
<stop stop-color="#D99F2B"/>
<stop offset="1" stop-color="#D99F2B" stop-opacity="0"/>
</radialGradient>
<linearGradient id="paint15_linear_296_48" x1="8.34685" y1="8.64687" x2="8.99685" y2="8.1925" gradientUnits="userSpaceOnUse">
<stop stop-color="#A85300"/>
<stop offset="0.825" stop-color="#A85300" stop-opacity="0"/>
</linearGradient>
<radialGradient id="paint16_radial_296_48" cx="0" cy="0" r="1" gradientUnits="userSpaceOnUse" gradientTransform="translate(9.77189 10.2312) rotate(137.351) scale(2.38911 4.67834)">
<stop offset="0.563" stop-color="#F09D2E" stop-opacity="0"/>
<stop offset="1" stop-color="#F09D2E"/>
</radialGradient>
<linearGradient id="paint17_linear_296_48" x1="8.40127" y1="12.8556" x2="8.40127" y2="11.4725" gradientUnits="userSpaceOnUse">
<stop stop-color="#FFC337"/>
<stop offset="1" stop-color="#FFC337" stop-opacity="0"/>
</linearGradient>
<radialGradient id="paint18_radial_296_48" cx="0" cy="0" r="1" gradientUnits="userSpaceOnUse" gradientTransform="translate(9.18627 8.18124) rotate(-12.2959) scale(1.81959 3.85439)">
<stop stop-color="#FFEC4C"/>
<stop offset="1" stop-color="#FFEC4C" stop-opacity="0"/>
</radialGradient>
<radialGradient id="paint19_radial_296_48" cx="0" cy="0" r="1" gradientUnits="userSpaceOnUse" gradientTransform="translate(8.07502 10.6719) rotate(-40.217) scale(2.531 12.9393)">
<stop offset="0.598" stop-color="#F09D2E" stop-opacity="0"/>
<stop offset="1" stop-color="#F09D2E"/>
</radialGradient>
<radialGradient id="paint20_radial_296_48" cx="0" cy="0" r="1" gradientUnits="userSpaceOnUse" gradientTransform="translate(6.00002 7.60686) rotate(29.5035) scale(1.83041 1.37761)">
<stop stop-color="#D99F2B"/>
<stop offset="1" stop-color="#D99F2B" stop-opacity="0"/>
</radialGradient>
<radialGradient id="paint21_radial_296_48" cx="0" cy="0" r="1" gradientUnits="userSpaceOnUse" gradientTransform="translate(6.96002 11.2056) rotate(-45.7639) scale(1.03589 4.67718)">
<stop stop-color="#A85300"/>
<stop offset="0.825" stop-color="#A85300" stop-opacity="0"/>
</radialGradient>
<radialGradient id="paint22_radial_296_48" cx="0" cy="0" r="1" gradientUnits="userSpaceOnUse" gradientTransform="translate(9.24063 12.9488) rotate(143.369) scale(2.34877 4.41933)">
<stop offset="0.563" stop-color="#F09D2E" stop-opacity="0"/>
<stop offset="1" stop-color="#F09D2E"/>
</radialGradient>
<radialGradient id="paint23_radial_296_48" cx="0" cy="0" r="1" gradientUnits="userSpaceOnUse" gradientTransform="translate(8.61188 11.1731) rotate(-9.97762) scale(1.93629 3.3638)">
<stop stop-color="#FFEC4C"/>
<stop offset="1" stop-color="#FFEC4C" stop-opacity="0"/>
</radialGradient>
<radialGradient id="paint24_radial_296_48" cx="0" cy="0" r="1" gradientUnits="userSpaceOnUse" gradientTransform="translate(7.41953 13.3299) rotate(-34.314) scale(2.50989 12.1176)">
<stop offset="0.598" stop-color="#F09D2E" stop-opacity="0"/>
<stop offset="1" stop-color="#F09D2E"/>
</radialGradient>
<radialGradient id="paint25_radial_296_48" cx="0" cy="0" r="1" gradientUnits="userSpaceOnUse" gradientTransform="translate(5.19376 10.6769) rotate(24.5479) scale(1.87856 1.24657)">
<stop stop-color="#D99F2B"/>
<stop offset="1" stop-color="#D99F2B" stop-opacity="0"/>
</radialGradient>
<linearGradient id="paint26_linear_296_48" x1="9.34313" y1="17.2406" x2="7.77001" y2="14.0231" gradientUnits="userSpaceOnUse">
<stop stop-color="#FFC337"/>
<stop offset="1" stop-color="#FFC337" stop-opacity="0"/>
</linearGradient>
<radialGradient id="paint27_radial_296_48" cx="0" cy="0" r="1" gradientUnits="userSpaceOnUse" gradientTransform="translate(14.9681 7.82686) rotate(129.014) scale(10.8592 17.5616)">
<stop offset="0.872" stop-color="#F6814F" stop-opacity="0"/>
<stop offset="1" stop-color="#F7814F"/>
</radialGradient>
<radialGradient id="paint28_radial_296_48" cx="0" cy="0" r="1" gradientUnits="userSpaceOnUse" gradientTransform="translate(12.7025 7.94374) rotate(76.293) scale(11.5396 12.6614)">
<stop offset="0.853" stop-color="#F6814F" stop-opacity="0"/>
<stop offset="1" stop-color="#F7814F"/>
</radialGradient>
<radialGradient id="paint29_radial_296_48" cx="0" cy="0" r="1" gradientUnits="userSpaceOnUse" gradientTransform="translate(15.3194 5.01436) rotate(64.44) scale(1.9918 1.77567)">
<stop stop-color="#D99F2B"/>
<stop offset="1" stop-color="#D99F2B" stop-opacity="0"/>
</radialGradient>
<radialGradient id="paint30_radial_296_48" cx="0" cy="0" r="1" gradientUnits="userSpaceOnUse" gradientTransform="translate(15.2906 8.82228) rotate(149.254) scale(0.7585 2.34709)">
<stop offset="0.201" stop-color="#B4813D"/>
<stop offset="1" stop-color="#B4813D" stop-opacity="0"/>
</radialGradient>
<radialGradient id="paint31_radial_296_48" cx="0" cy="0" r="1" gradientUnits="userSpaceOnUse" gradientTransform="translate(3.05813 10.7438) rotate(62.071) scale(3.3201 4.92386)">
<stop stop-color="#419FFD"/>
<stop offset="1" stop-color="#4B6DCB"/>
</radialGradient>
<radialGradient id="paint32_radial_296_48" cx="0" cy="0" r="1" gradientUnits="userSpaceOnUse" gradientTransform="translate(2.11876 10.9906) rotate(2.38594) scale(0.469157 0.987344)">
<stop stop-color="#5486C7"/>
<stop offset="1" stop-color="#5486C7" stop-opacity="0"/>
</radialGradient>
<radialGradient id="paint33_radial_296_48" cx="0" cy="0" r="1" gradientUnits="userSpaceOnUse" gradientTransform="translate(5.63501 13.6663) rotate(111.801) scale(0.473308 1.39217)">
<stop stop-color="#5486C7"/>
<stop offset="1" stop-color="#5486C7" stop-opacity="0"/>
</radialGradient>
<radialGradient id="paint34_radial_296_48" cx="0" cy="0" r="1" gradientUnits="userSpaceOnUse" gradientTransform="translate(3.30123 12.4747) rotate(94.712) scale(2.62606 4.41547)">
<stop stop-color="#419FFD"/>
<stop offset="1" stop-color="#4B6DCB"/>
</radialGradient>
<radialGradient id="paint35_radial_296_48" cx="0" cy="0" r="1" gradientUnits="userSpaceOnUse" gradientTransform="translate(1.07624 12.1725) rotate(2.38521) scale(0.447525 0.941365)">
<stop stop-color="#5486C7"/>
<stop offset="1" stop-color="#5486C7" stop-opacity="0"/>
</radialGradient>
<radialGradient id="paint36_radial_296_48" cx="0" cy="0" r="1" gradientUnits="userSpaceOnUse" gradientTransform="translate(11.5675 1.46624) rotate(60.196) scale(2.7895 4.13694)">
<stop stop-color="#419FFD"/>
<stop offset="1" stop-color="#4B6DCB"/>
</radialGradient>
<radialGradient id="paint37_radial_296_48" cx="0" cy="0" r="1" gradientUnits="userSpaceOnUse" gradientTransform="translate(10.4181 2.47637) rotate(18.861) scale(0.401319 0.645944)">
<stop stop-color="#4D8AC1"/>
<stop offset="1" stop-color="#4D8AC1" stop-opacity="0"/>
</radialGradient>
<radialGradient id="paint38_radial_296_48" cx="0" cy="0" r="1" gradientUnits="userSpaceOnUse" gradientTransform="translate(12.7419 0.476246) rotate(60.69) scale(3.46539 5.14066)">
<stop stop-color="#419FFD"/>
<stop offset="1" stop-color="#4B6DCB"/>
</radialGradient>
<radialGradient id="paint39_radial_296_48" cx="0" cy="0" r="1" gradientUnits="userSpaceOnUse" gradientTransform="translate(11.6463 1.43963) rotate(18.853) scale(0.382794 0.615894)">
<stop stop-color="#4D8AC1"/>
<stop offset="1" stop-color="#4D8AC1" stop-opacity="0"/>
</radialGradient>
</defs>
</svg>
