<svg width="20" height="20" viewBox="0 0 20 20" fill="none" xmlns="http://www.w3.org/2000/svg">
<path d="M2.5 5.625C2.5 4.7962 2.82924 4.00134 3.41529 3.41529C4.00134 2.82924 4.7962 2.5 5.625 2.5H14.375C15.2038 2.5 15.9987 2.82924 16.5847 3.41529C17.1708 4.00134 17.5 4.7962 17.5 5.625V14.375C17.5 15.2038 17.1708 15.9987 16.5847 16.5847C15.9987 17.1708 15.2038 17.5 14.375 17.5H5.625C4.7962 17.5 4.00134 17.1708 3.41529 16.5847C2.82924 15.9987 2.5 15.2038 2.5 14.375V5.625ZM10.625 13.125C10.625 13.2908 10.6908 13.4497 10.8081 13.5669C10.9253 13.6842 11.0842 13.75 11.25 13.75H14.0625C14.2283 13.75 14.3872 13.6842 14.5044 13.5669C14.6217 13.4497 14.6875 13.2908 14.6875 13.125C14.6875 12.9592 14.6217 12.8003 14.5044 12.6831C14.3872 12.5658 14.2283 12.5 14.0625 12.5H11.25C11.0842 12.5 10.9253 12.5658 10.8081 12.6831C10.6908 12.8003 10.625 12.9592 10.625 13.125ZM11.25 7.5C11.0842 7.5 10.9253 7.56585 10.8081 7.68306C10.6908 7.80027 10.625 7.95924 10.625 8.125C10.625 8.29076 10.6908 8.44973 10.8081 8.56694C10.9253 8.68415 11.0842 8.75 11.25 8.75H14.0625C14.2283 8.75 14.3872 8.68415 14.5044 8.56694C14.6217 8.44973 14.6875 8.29076 14.6875 8.125C14.6875 7.95924 14.6217 7.80027 14.5044 7.68306C14.3872 7.56585 14.2283 7.5 14.0625 7.5H11.25ZM9.1925 11.4325C9.13444 11.3743 9.06547 11.3281 8.98954 11.2966C8.91361 11.2651 8.83221 11.2489 8.75 11.2489C8.66779 11.2489 8.58639 11.2651 8.51046 11.2966C8.43453 11.3281 8.36556 11.3743 8.3075 11.4325L6.875 12.8663L6.3825 12.3725C6.26531 12.2551 6.10629 12.1891 5.94044 12.189C5.77459 12.1889 5.61548 12.2547 5.49813 12.3719C5.38077 12.4891 5.31477 12.6481 5.31465 12.8139C5.31454 12.9798 5.38031 13.1389 5.4975 13.2562L6.4325 14.1925C6.49056 14.2507 6.55953 14.2969 6.63546 14.3284C6.71139 14.3599 6.79279 14.3761 6.875 14.3761C6.95721 14.3761 7.03861 14.3599 7.11454 14.3284C7.19047 14.2969 7.25944 14.2507 7.3175 14.1925L9.1925 12.3175C9.2507 12.2594 9.29688 12.1905 9.32839 12.1145C9.3599 12.0386 9.37612 11.9572 9.37612 11.875C9.37612 11.7928 9.3599 11.7114 9.32839 11.6355C9.29688 11.5595 9.2507 11.4906 9.1925 11.4325ZM9.1925 7.3175C9.25061 7.25939 9.29671 7.1904 9.32815 7.11448C9.3596 7.03856 9.37579 6.95718 9.37579 6.875C9.37579 6.79282 9.3596 6.71144 9.32815 6.63552C9.29671 6.5596 9.25061 6.49061 9.1925 6.4325C9.13439 6.37439 9.0654 6.32829 8.98948 6.29685C8.91356 6.2654 8.83218 6.24921 8.75 6.24921C8.66782 6.24921 8.58644 6.2654 8.51052 6.29685C8.4346 6.32829 8.36561 6.37439 8.3075 6.4325L6.875 7.86625L6.3825 7.3725C6.26514 7.25514 6.10597 7.18921 5.94 7.18921C5.77403 7.18921 5.61486 7.25514 5.4975 7.3725C5.38014 7.48986 5.31421 7.64903 5.31421 7.815C5.31421 7.98097 5.38014 8.14014 5.4975 8.2575L6.4325 9.1925C6.49056 9.2507 6.55953 9.29688 6.63546 9.32839C6.71139 9.3599 6.79279 9.37612 6.875 9.37612C6.95721 9.37612 7.03861 9.3599 7.11454 9.32839C7.19047 9.29688 7.25944 9.2507 7.3175 9.1925L9.1925 7.3175Z" fill="#572E7F"/>
</svg>
