<svg width="65" height="64" viewBox="0 0 65 64" fill="none" xmlns="http://www.w3.org/2000/svg">
<g clip-path="url(#clip0_354_51)">
<path d="M50.0487 22.3733L55.6681 34.2533C56.1218 35.2123 56.1758 36.3122 55.8185 37.3111C55.4611 38.3099 54.7216 39.1259 53.7626 39.5796L30.2594 50.6971C29.3004 51.1507 28.2005 51.2048 27.2016 50.8474C26.2028 50.4901 25.3868 49.7505 24.9332 48.7916L23.6504 46.0796M50.0487 22.3733L48.8266 19.7898C48.373 18.8308 47.557 18.0913 46.5581 17.7339C45.5592 17.3766 44.4593 17.4307 43.5003 17.8843L41.6924 18.7395M50.0487 22.3733L44.6248 24.9389" stroke="#5F28A7" stroke-width="1.5" stroke-linecap="round" stroke-linejoin="round"/>
<path d="M41.6924 18.7395L47.2511 30.4911C47.7048 31.4501 47.7588 32.55 47.4015 33.5489C47.0441 34.5477 46.3046 35.3637 45.3456 35.8174L21.8424 46.9348C20.8834 47.3885 19.7835 47.4426 18.7847 47.0852C17.7858 46.7279 16.9698 45.9883 16.5162 45.0294L9.67463 30.5658C9.22101 29.6068 9.16692 28.5069 9.52427 27.5081C9.88162 26.5092 10.6211 25.6932 11.5801 25.2396L35.0833 14.1221C36.0423 13.6685 37.1422 13.6144 38.1411 13.9717C39.14 14.3291 39.956 15.0686 40.4096 16.0276L41.6924 18.7395ZM41.6924 18.7395L17.2852 30.2846" stroke="#5F28A7" stroke-width="1.5" stroke-linecap="round" stroke-linejoin="round"/>
</g>
<defs>
<clipPath id="clip0_354_51">
<rect width="48" height="48" fill="white" transform="translate(0.5 20.5246) rotate(-25.3151)"/>
</clipPath>
</defs>
</svg>
