<svg width="189" height="228" viewBox="0 0 189 228" fill="none" xmlns="http://www.w3.org/2000/svg">
<mask id="path-1-inside-1_482_16" fill="white">
<path fill-rule="evenodd" clip-rule="evenodd" d="M108.5 196C151.302 196 186 161.302 186 118.5C186 75.6979 151.302 41 108.5 41C65.6979 41 31 75.6979 31 118.5C31 139.655 39.476 158.83 53.2172 172.815L54.6286 227.09L105.478 195.942C106.481 195.981 107.488 196 108.5 196Z"/>
</mask>
<path d="M53.2172 172.815L59.2152 172.659L59.1537 170.295L57.497 168.609L53.2172 172.815ZM54.6286 227.09L48.6306 227.246L48.9008 237.635L57.7627 232.207L54.6286 227.09ZM105.478 195.942L105.708 189.947L103.893 189.877L102.344 190.826L105.478 195.942ZM180 118.5C180 157.988 147.988 190 108.5 190V202C154.616 202 192 164.616 192 118.5H180ZM108.5 47C147.988 47 180 79.0116 180 118.5H192C192 72.3842 154.616 35 108.5 35V47ZM37 118.5C37 79.0116 69.0116 47 108.5 47V35C62.3842 35 25 72.3842 25 118.5H37ZM57.497 168.609C44.8135 155.701 37 138.019 37 118.5H25C25 141.291 34.1385 161.959 48.9375 177.02L57.497 168.609ZM60.6266 226.934L59.2152 172.659L47.2193 172.971L48.6306 227.246L60.6266 226.934ZM102.344 190.826L51.4945 221.974L57.7627 232.207L108.613 201.059L102.344 190.826ZM108.5 190C107.565 190 106.634 189.982 105.708 189.947L105.249 201.938C106.328 201.979 107.412 202 108.5 202V190Z" fill="#00FA91" mask="url(#path-1-inside-1_482_16)"/>
<path d="M98 101C98 95.4772 93.5228 91 88 91C82.4772 91 78 95.4772 78 101" stroke="#00FA91" stroke-width="3" stroke-linecap="round"/>
<path d="M102 123C102 128.523 106.477 133 112 133C117.523 133 122 128.523 122 123" stroke="#00FA91" stroke-width="3" stroke-linecap="round"/>
<path d="M144 101C144 95.4772 139.523 91 134 91C128.477 91 124 95.4772 124 101" stroke="#00FA91" stroke-width="3" stroke-linecap="round"/>
<path d="M176.94 31.94C177.222 31.6718 177.597 31.5235 177.986 31.5264C178.375 31.5294 178.747 31.6833 179.025 31.9558C179.302 32.2282 179.463 32.5979 179.474 32.9868C179.484 33.3756 179.343 33.7533 179.08 34.04L171.1 44.02C170.963 44.1678 170.797 44.2864 170.613 44.3687C170.429 44.4511 170.23 44.4954 170.028 44.4992C169.827 44.5029 169.626 44.4659 169.439 44.3905C169.252 44.315 169.083 44.2026 168.94 44.06L163.648 38.768C163.501 38.6307 163.382 38.4651 163.3 38.2811C163.218 38.0971 163.174 37.8985 163.171 37.697C163.167 37.4956 163.204 37.2956 163.28 37.1088C163.355 36.922 163.467 36.7524 163.61 36.6099C163.752 36.4675 163.922 36.3552 164.109 36.2798C164.296 36.2043 164.496 36.1673 164.697 36.1708C164.898 36.1744 165.097 36.2185 165.281 36.3004C165.465 36.3824 165.631 36.5006 165.768 36.648L169.956 40.834L176.902 31.984L176.94 31.94Z" fill="#00FA91"/>
<path d="M21.9399 189.94C22.2217 189.672 22.5966 189.523 22.9856 189.526C23.3746 189.529 23.7472 189.683 24.0248 189.956C24.3025 190.228 24.4634 190.598 24.4737 190.987C24.484 191.376 24.3428 191.753 24.0799 192.04L16.0999 202.02C15.9627 202.168 15.7971 202.286 15.613 202.369C15.4289 202.451 15.2301 202.495 15.0285 202.499C14.8268 202.503 14.6265 202.466 14.4395 202.39C14.2524 202.315 14.0825 202.203 13.9399 202.06L8.64795 196.768C8.50058 196.631 8.38237 196.465 8.30039 196.281C8.2184 196.097 8.17432 195.898 8.17077 195.697C8.16721 195.496 8.20426 195.296 8.2797 195.109C8.35515 194.922 8.46744 194.752 8.60987 194.61C8.75231 194.467 8.92198 194.355 9.10875 194.28C9.29553 194.204 9.49559 194.167 9.69699 194.171C9.8984 194.174 10.097 194.218 10.281 194.3C10.465 194.382 10.6306 194.501 10.7679 194.648L14.9559 198.834L21.9019 189.984L21.9399 189.94Z" fill="#00FA91"/>
<path d="M77.9399 9.94C78.2217 9.67178 78.5966 9.5235 78.9856 9.52644C79.3746 9.52938 79.7472 9.68332 80.0248 9.95578C80.3025 10.2282 80.4634 10.5979 80.4737 10.9868C80.484 11.3756 80.3428 11.7533 80.0799 12.04L72.0999 22.02C71.9627 22.1678 71.7971 22.2864 71.613 22.3687C71.4289 22.4511 71.2301 22.4954 71.0285 22.4992C70.8268 22.5029 70.6265 22.4659 70.4395 22.3905C70.2524 22.315 70.0825 22.2026 69.9399 22.06L64.6479 16.768C64.5006 16.6307 64.3824 16.4651 64.3004 16.2811C64.2184 16.0971 64.1743 15.8985 64.1708 15.697C64.1672 15.4956 64.2043 15.2956 64.2797 15.1088C64.3551 14.922 64.4674 14.7524 64.6099 14.6099C64.7523 14.4675 64.922 14.3552 65.1088 14.2798C65.2955 14.2043 65.4956 14.1673 65.697 14.1708C65.8984 14.1744 66.097 14.2185 66.281 14.3004C66.465 14.3824 66.6306 14.5006 66.7679 14.648L70.9559 18.834L77.9019 9.984L77.9399 9.94Z" fill="#00FA91"/>
<circle cx="23.5" cy="54.5" r="9" stroke="#00FA91" stroke-width="3"/>
<circle cx="178.5" cy="204.5" r="9" stroke="#00FA91" stroke-width="3"/>
</svg>
