<svg width="24" height="24" viewBox="0 0 24 24" fill="none" xmlns="http://www.w3.org/2000/svg">
<g clip-path="url(#clip0_297_92)">
<path d="M12.0001 2C10.1435 2 8.36306 2.7375 7.0503 4.05025C5.73755 5.36301 5.00005 7.14348 5.00005 9V12.528C5.0002 12.6831 4.96425 12.8362 4.89505 12.975L3.17805 16.408C3.09418 16.5757 3.05457 16.7621 3.063 16.9494C3.07143 17.1368 3.1276 17.3188 3.2262 17.4783C3.32479 17.6379 3.46252 17.7695 3.62632 17.8608C3.79011 17.9521 3.97453 18 4.16205 18H19.8381C20.0256 18 20.21 17.9521 20.3738 17.8608C20.5376 17.7695 20.6753 17.6379 20.7739 17.4783C20.8725 17.3188 20.9287 17.1368 20.9371 16.9494C20.9455 16.7621 20.9059 16.5757 20.8221 16.408L19.1061 12.975C19.0365 12.8362 19.0002 12.6832 19.0001 12.528V9C19.0001 7.14348 18.2626 5.36301 16.9498 4.05025C15.637 2.7375 13.8566 2 12.0001 2ZM12.0001 21C11.3794 21.0002 10.774 20.8079 10.2672 20.4498C9.76037 20.0916 9.37706 19.5851 9.17005 19H14.8301C14.623 19.5851 14.2397 20.0916 13.7329 20.4498C13.2261 20.8079 12.6207 21.0002 12.0001 21Z" fill="black" fill-opacity="0.38"/>
</g>
<defs>
<clipPath id="clip0_297_92">
<rect width="24" height="24" fill="white"/>
</clipPath>
</defs>
</svg>
