<svg width="10" height="10" viewBox="0 0 10 10" fill="none" xmlns="http://www.w3.org/2000/svg">
<path d="M5.00004 9.16666C2.69879 9.16666 0.833374 7.30124 0.833374 4.99999C0.833374 2.69875 2.69879 0.833328 5.00004 0.833328C7.30129 0.833328 9.16671 2.69875 9.16671 4.99999C9.16671 7.30124 7.30129 9.16666 5.00004 9.16666ZM5.00004 8.33333C5.8841 8.33333 6.73194 7.98214 7.35706 7.35702C7.98218 6.7319 8.33337 5.88405 8.33337 4.99999C8.33337 4.11594 7.98218 3.26809 7.35706 2.64297C6.73194 2.01785 5.8841 1.66666 5.00004 1.66666C4.11599 1.66666 3.26814 2.01785 2.64302 2.64297C2.0179 3.26809 1.66671 4.11594 1.66671 4.99999C1.66671 5.88405 2.0179 6.7319 2.64302 7.35702C3.26814 7.98214 4.11599 8.33333 5.00004 8.33333ZM4.58462 6.66666L2.81671 4.89874L3.40587 4.30958L4.58462 5.48833L6.94171 3.13124L7.53087 3.72041L4.58462 6.66666Z" fill="white"/>
</svg>
